<svg viewBox="0 0 512 512" xmlns="http://www.w3.org/2000/svg">
    <g>
        <g id="first" transform="scale(0.17)">
            <path d="m512 256c0 141.386719-114.613281 256-256 256s-256-114.613281-256-256 114.613281-256 256-256 256 114.613281 256 256zm0 0"
                  fill="#9331b2"/>
            <path d="m512 256c0-7.671875-.355469-15.257812-1.019531-22.753906l-80.484375-80.71875c-6.398438-9.0625-17.203125-14.953125-31.730469-17.542969-.390625-.523437-.800781-1.035156-1.230469-1.527344-3.507812-10.160156-13.136718-17.464843-24.488281-17.464843-12.542969 0-23.007813 8.90625-25.410156 20.738281-1.53125.28125-3.082031.59375-4.632813.90625l-46.332031-56.914063c-11.921875-18.082031-25.832031-27.71875-40.671875-27.71875-22.550781 0-42.96875 22.226563-57.496094 62.589844-3.050781 8.46875-5.785156 17.566406-8.203125 27.171875-9.539062-2.667969-18.792969-4.804687-27.660156-6.363281-42.25-7.421875-71.679687-.726563-82.871094 18.855468-11.195312 19.574219-2.03125 48.332032 25.800781 80.976563 5.601563 6.570313 11.84375 13.179687 18.644532 19.765625-6.800782 6.585938-13.042969 13.195312-18.644532 19.765625-27.832031 32.644531-36.996093 61.402344-25.800781 80.976563 2.160157 3.78125 5.003907 7.082031 8.492188 9.890624l144.476562 144.304688c7.664063.691406 15.417969 1.0625 23.261719 1.0625 141.386719 0 256-114.613281 256-256zm0 0"
                  fill="#5c1b6f"/>
            <path d="m293.332031 256c0 20.617188-16.714843 37.332031-37.332031 37.332031s-37.332031-16.714843-37.332031-37.332031 16.714843-37.332031 37.332031-37.332031 37.332031 16.714843 37.332031 37.332031zm0 0"
                  fill="#ff9a00"/>
            <path d="m387.785156 256c6.800782-6.585938 13.042969-13.195312 18.644532-19.765625 27.832031-32.644531 36.992187-61.402344 25.800781-80.976563-11.191407-19.578124-40.625-26.273437-82.871094-18.855468-8.867187 1.558594-18.121094 3.695312-27.660156 6.363281-2.417969-9.605469-5.15625-18.703125-8.203125-27.171875-14.527344-40.363281-34.945313-62.589844-57.496094-62.589844s-42.96875 22.226563-57.496094 62.589844c-3.050781 8.46875-5.785156 17.566406-8.203125 27.171875-9.539062-2.667969-18.792969-4.804687-27.660156-6.363281-42.25-7.421875-71.679687-.726563-82.871094 18.855468-11.195312 19.574219-2.03125 48.332032 25.800781 80.976563 5.601563 6.570313 11.84375 13.179687 18.644532 19.765625-6.800782 6.585938-13.042969 13.195312-18.644532 19.765625-27.832031 32.644531-36.996093 61.402344-25.800781 80.976563 8.214844 14.375 26.257813 21.804687 51.988281 21.804687 9.316407 0 19.648438-.976563 30.882813-2.949219 8.867187-1.558594 18.121094-3.695312 27.660156-6.363281 2.417969 9.605469 5.152344 18.703125 8.203125 27.171875 14.527344 40.363281 34.945313 62.589844 57.496094 62.589844s42.96875-22.226563 57.496094-62.589844c3.050781-8.46875 5.785156-17.566406 8.203125-27.171875 9.539062 2.667969 18.792969 4.804687 27.660156 6.363281 11.238281 1.972656 21.5625 2.949219 30.882813 2.949219 25.730468 0 43.773437-7.429687 51.988281-21.804687 11.195312-19.574219 2.03125-48.332032-25.800781-80.976563-5.601563-6.570313-11.84375-13.179687-18.644532-19.765625zm-35.484375-102.855469c10.300781-1.808593 19.726563-2.695312 28.058594-2.695312 18.894531 0 32.148437 4.558593 37.113281 13.242187 7.15625 12.515625-1.808594 35.507813-23.976562 61.511719-5.453125 6.394531-11.554688 12.832031-18.222656 19.257813-12.78125-11.246094-27.097657-22.332032-42.578126-32.957032-1.507812-18.273437-3.945312-35.796875-7.246093-52.140625 9.277343-2.621093 18.265625-4.710937 26.851562-6.21875zm-65.777343 156.246094c-10.167969 5.8125-20.375 11.210937-30.523438 16.167969-10.148438-4.957032-20.355469-10.355469-30.523438-16.167969-10.320312-5.898437-20.292968-12.050781-29.839843-18.378906-.742188-11.226563-1.136719-22.914063-1.136719-35.011719s.394531-23.785156 1.136719-35.011719c9.546875-6.332031 19.519531-12.480469 29.839843-18.378906 10.167969-5.8125 20.375-11.210937 30.523438-16.167969 10.148438 4.957032 20.355469 10.355469 30.523438 16.167969 10.320312 5.898437 20.292968 12.050781 29.839843 18.378906.742188 11.226563 1.136719 22.914063 1.136719 35.011719 0 12.09375-.394531 23.785156-1.136719 35.011719-9.546875 6.328125-19.519531 12.480469-29.839843 18.378906zm27.949218 3.066406c-1.378906 12.421875-3.183594 24.164063-5.351562 35.117188-10.882813-3.664063-22.070313-7.984375-33.417969-12.917969 6.421875-3.339844 12.851563-6.84375 19.257813-10.503906 6.644531-3.800782 13.152343-7.707032 19.511718-11.695313zm-78.175781 22.199219c-11.347656 4.933594-22.535156 9.253906-33.417969 12.917969-2.167968-10.957031-3.972656-22.695313-5.351562-35.121094 6.359375 3.992187 12.867187 7.898437 19.511718 11.695313 6.40625 3.664062 12.835938 7.164062 19.257813 10.507812zm-58.328125-55.910156c-10.21875-7.441406-19.804688-15.058594-28.625-22.746094 8.820312-7.6875 18.40625-15.304688 28.625-22.746094-.308594 7.5-.46875 15.089844-.46875 22.746094s.160156 15.246094.46875 22.746094zm19.558594-79.203125c1.378906-12.421875 3.183594-24.164063 5.351562-35.117188 10.882813 3.664063 22.070313 7.984375 33.417969 12.917969-6.421875 3.339844-12.851563 6.84375-19.257813 10.503906-6.644531 3.800782-13.152343 7.707032-19.511718 11.695313zm78.175781-22.199219c11.347656-4.933594 22.535156-9.253906 33.417969-12.917969 2.167968 10.957031 3.972656 22.695313 5.351562 35.121094-6.359375-3.992187-12.867187-7.898437-19.511718-11.695313-6.40625-3.664062-12.835938-7.164062-19.257813-10.507812zm58.328125 55.910156c10.21875 7.441406 19.804688 15.058594 28.625 22.746094-8.820312 7.6875-18.40625 15.304688-28.625 22.746094.308594-7.5.46875-15.089844.46875-22.746094s-.160156-15.246094-.46875-22.746094zm-78.03125-163.25c18.027344 0 37.328125 29.347656 49.402344 77.75-16 5.304688-32.605469 11.972656-49.402344 19.84375-16.796875-7.871094-33.402344-14.535156-49.402344-19.84375 12.074219-48.402344 31.375-77.75 49.402344-77.75zm-137.492188 155.199219c-22.171874-26-31.136718-48.996094-23.980468-61.511719 4.964844-8.683594 18.214844-13.242187 37.113281-13.242187 8.332031 0 17.761719.886719 28.058594 2.695312 8.585937 1.507813 17.574219 3.597657 26.851562 6.21875-3.296875 16.34375-5.734375 33.867188-7.242187 52.140625-15.480469 10.625-29.796875 21.710938-42.582032 32.957032-6.667968-6.425782-12.769531-12.863282-18.21875-19.257813zm41.191407 133.652344c-33.65625 5.910156-58.019531 1.964843-65.171875-10.546875-7.15625-12.515625 1.808594-35.511719 23.980468-61.511719 5.449219-6.394531 11.550782-12.832031 18.21875-19.257813 12.78125 11.246094 27.101563 22.332032 42.578126 32.957032 1.507812 18.273437 3.945312 35.796875 7.246093 52.140625-9.277343 2.621093-18.265625 4.710937-26.851562 6.21875zm96.300781 83.140625c-18.027344 0-37.328125-29.347656-49.402344-77.75 16-5.304688 32.605469-11.972656 49.402344-19.84375 16.796875 7.871094 33.40625 14.535156 49.402344 19.84375-12.074219 48.402344-31.375 77.75-49.402344 77.75zm161.472656-93.6875c-7.152344 12.511718-31.511718 16.457031-65.171875 10.546875-8.585937-1.507813-17.574219-3.597657-26.851562-6.21875 3.300781-16.34375 5.738281-33.867188 7.246093-52.140625 15.476563-10.625 29.796876-21.710938 42.578126-32.957032 6.667968 6.425782 12.769531 12.863282 18.222656 19.257813 22.167968 26 31.132812 48.996094 23.976562 61.511719zm0 0"
                  fill="#fff"/>
            <path d="m387.78125 256c6.808594-6.589844 13.046875-13.199219 18.648438-19.769531 27.832031-32.640625 36.992187-61.402344 25.800781-80.96875-11.191407-19.582031-40.621094-26.28125-82.871094-18.863281-8.871094 1.5625-18.121094 3.703124-27.660156 6.371093-2.417969-9.609375-5.160157-18.710937-8.199219-27.179687-14.53125-40.359375-34.949219-62.589844-57.5-62.589844v17c18.03125 0 37.328125 29.351562 49.398438 77.761719-16 5.296875-32.597657 11.96875-49.398438 19.839843v18.839844c10.148438 4.957032 20.359375 10.359375 30.519531 16.167969 10.320313 5.902344 20.300781 12.050781 29.839844 18.378906.75 11.230469 1.140625 22.910157 1.140625 35.011719s-.390625 23.78125-1.140625 35.011719c-9.539063 6.328125-19.519531 12.476562-29.839844 18.378906-10.160156 5.808594-20.371093 11.210937-30.519531 16.167969v18.839844c16.800781 7.871093 33.398438 14.542968 49.398438 19.839843-12.070313 48.410157-31.367188 77.761719-49.398438 77.761719v17c22.550781 0 42.96875-22.230469 57.5-62.589844 3.039062-8.46875 5.78125-17.570312 8.199219-27.179687 9.539062 2.667969 18.789062 4.808593 27.660156 6.371093 11.242187 1.96875 21.5625 2.949219 30.878906 2.949219 25.730469 0 43.78125-7.429687 51.992188-21.8125 11.191406-19.566406 2.03125-48.328125-25.800781-80.96875-5.601563-6.570312-11.839844-13.179687-18.648438-19.769531zm-92.820312-68.148438c-6.410157-3.660156-12.832032-7.160156-19.261719-10.511718 11.351562-4.929688 22.539062-9.25 33.421875-12.910156 2.167968 10.949218 3.96875 22.691406 5.347656 35.109374-6.359375-3.988281-12.859375-7.890624-19.507812-11.6875zm14.160156 159.71875c-10.882813-3.660156-22.070313-7.980468-33.421875-12.910156 6.429687-3.351562 12.851562-6.851562 19.261719-10.511718 6.648437-3.796876 13.148437-7.699219 19.507812-11.6875-1.378906 12.417968-3.179688 24.160156-5.347656 35.109374zm43.179687-194.421874c10.300781-1.808594 19.730469-2.699219 28.058594-2.699219 18.890625 0 32.152344 4.5625 37.109375 13.242187 7.160156 12.519532-1.808594 35.507813-23.980469 61.507813-5.449219 6.402343-11.546875 12.839843-18.21875 19.261719-12.78125-11.25-27.097656-22.332032-42.578125-32.960938-1.5-18.269531-3.941406-35.789062-7.242187-52.140625 9.28125-2.621094 18.261719-4.710937 26.851562-6.210937zm-18.269531 80.113281c10.21875 7.4375 19.796875 15.046875 28.628906 22.738281-8.832031 7.691406-18.410156 15.300781-28.628906 22.738281.308594-7.5.46875-15.078125.46875-22.738281s-.160156-15.238281-.46875-22.738281zm83.4375 115.046875c-7.148438 12.511718-31.507812 16.453125-65.167969 10.542968-8.589843-1.5-17.570312-3.589843-26.851562-6.210937 3.300781-16.351563 5.742187-33.871094 7.242187-52.140625 15.480469-10.628906 29.796875-21.710938 42.578125-32.960938 6.671875 6.421876 12.769531 12.859376 18.21875 19.261719 22.171875 26 31.140625 48.988281 23.980469 61.507813zm0 0"
                  fill="#fff5cb"/>
            <path d="m293.328125 256c0 20.621094-16.707031 37.328125-37.328125 37.328125v-74.65625c20.621094 0 37.328125 16.707031 37.328125 37.328125zm0 0"
                  fill="#e67500"/>
            <path d="m168.980469 370.078125c0 14.320313-11.613281 25.933594-25.933594 25.933594s-25.933594-11.613281-25.933594-25.933594 11.613281-25.933594 25.933594-25.933594 25.933594 11.613281 25.933594 25.933594zm0 0"
                  fill="#00e8f2"/>
            <path d="m398.980469 141.921875c0 14.320313-11.613281 25.933594-25.933594 25.933594s-25.933594-11.613281-25.933594-25.933594 11.613281-25.933594 25.933594-25.933594 25.933594 11.613281 25.933594 25.933594zm0 0"
                  fill="#fdc000"/>
        </g>
        <g id="second" transform="scale(0.17)">
            <path d="m512 256c0 141.386719-114.613281 256-256 256s-256-114.613281-256-256 114.613281-256 256-256 256 114.613281 256 256zm0 0" fill="#00e8f2"/><path d="m512 256c0-28.484375-4.660156-55.878906-13.242188-81.46875l-72.164062-72.132812c-3.699219-4.101563-9.035156-6.699219-14.964844-6.699219h-311.257812c-11.109375 0-20.199219 9.089843-20.199219 20.199219v224.511718c0 6.121094 2.769531 11.617188 7.105469 15.324219l156.429687 155.964844c4.074219.195312 8.171875.300781 12.292969.300781 141.386719 0 256-114.613281 256-256zm0 0" fill="#00b7be"/><path d="m200.902344 356.457031h110.195312v58.035157h-110.195312zm0 0" fill="#9331b2"/><path d="m256 356.460938h55.101562v58.027343h-55.101562zm0 0" fill="#5c1b6f"/><path d="m411.628906 360.605469h-311.257812c-11.109375 0-20.199219-9.085938-20.199219-20.195313v-224.515625c0-11.109375 9.089844-20.195312 20.199219-20.195312h311.257812c11.109375 0 20.199219 9.085937 20.199219 20.195312v224.511719c0 11.113281-9.089844 20.199219-20.199219 20.199219zm0 0" fill="#b857cf"/><path d="m431.828125 115.898438v224.511718c0 11.109375-9.089844 20.199219-20.199219 20.199219h-155.628906v-264.910156h155.628906c11.109375 0 20.199219 9.089843 20.199219 20.199219zm0 0" fill="#9331b2"/><path d="m100.863281 115.867188h310.273438v215.246093h-310.273438zm0 0" fill="#ffdf47"/><path d="m256 115.871094h155.140625v215.238281h-155.140625zm0 0" fill="#ffb84d"/><path d="m172.4375 412.65625h167.125v25.34375h-167.125zm0 0" fill="#b857cf"/><path d="m256 412.660156h83.558594v25.339844h-83.558594zm0 0" fill="#9331b2"/><g fill="#fff"><path d="m139.007812 173.609375v5.871094h-19.710937v-5.871094h6.894531v-14.710937c-.292968.386718-.753906.785156-1.386718 1.1875-.628907.40625-1.316407.785156-2.0625 1.140624-.746094.359376-1.511719.648438-2.304688.875-.792969.226563-1.496094.339844-2.113281.339844v-6.070312c.582031 0 1.292969-.183594 2.136719-.554688.84375-.375 1.667968-.820312 2.476562-1.335937s1.511719-1.027344 2.109375-1.53125c.601563-.5.980469-.894531 1.140625-1.1875h6.652344v21.847656zm0 0"/><path d="m164.199219 173.609375v5.871094h-19.707031v-5.871094h6.890624v-14.710937c-.289062.386718-.75.785156-1.382812 1.1875-.628906.40625-1.316406.785156-2.0625 1.140624-.746094.359376-1.511719.648438-2.304688.875-.792968.226563-1.496093.339844-2.113281.339844v-6.070312c.582031 0 1.292969-.183594 2.136719-.554688.839844-.375 1.667969-.820312 2.476562-1.335937.808594-.515625 1.511719-1.027344 2.109376-1.53125.601562-.5.980468-.894531 1.140624-1.1875h6.652344v21.847656zm0 0"/><path d="m194.007812 165.257812c0 2.136719-.316406 4.101563-.945312 5.898438-.632812 1.796875-1.507812 3.351562-2.625 4.660156-1.113281 1.3125-2.441406 2.332032-3.980469 3.058594-1.535156.726562-3.195312 1.089844-4.976562 1.089844-1.8125 0-3.476563-.363282-4.996094-1.089844-1.523437-.730469-2.839844-1.746094-3.957031-3.058594-1.117188-1.3125-1.992188-2.863281-2.625-4.660156-.628906-1.796875-.945313-3.761719-.945313-5.898438 0-2.136718.316407-4.101562.945313-5.898437.632812-1.796875 1.507812-3.347656 2.625-4.660156 1.113281-1.308594 2.433594-2.335938 3.957031-3.082031 1.519531-.746094 3.1875-1.117188 4.996094-1.117188 1.78125 0 3.441406.375 4.976562 1.117188 1.539063.746093 2.867188 1.773437 3.980469 3.082031 1.117188 1.3125 1.992188 2.863281 2.625 4.660156.628906 1.796875.945312 3.761719.945312 5.898437zm-6.554687 0c0-1.292968-.144531-2.484374-.4375-3.566406-.289063-1.085937-.703125-2.015625-1.238281-2.792968-.535156-.777344-1.164063-1.375-1.890625-1.796876-.730469-.417968-1.53125-.628906-2.40625-.628906-.90625 0-1.722657.210938-2.449219.628906-.726562.421876-1.359375 1.019532-1.894531 1.796876-.535157.777343-.945313 1.707031-1.238281 2.792968-.289063 1.082032-.433594 2.273438-.433594 3.566406 0 1.296876.144531 2.476563.433594 3.542969.292968 1.070313.707031 1.992188 1.238281 2.769531.535156.777344 1.167969 1.375 1.894531 1.792969.726562.421875 1.542969.632813 2.449219.632813.875 0 1.675781-.210938 2.40625-.632813.726562-.417969 1.355469-1.019531 1.890625-1.792969.535156-.777343.949218-1.699218 1.238281-2.769531.292969-1.066406.4375-2.246093.4375-3.542969zm0 0"/><path d="m225.027344 165.257812c0 2.136719-.3125 4.101563-.945313 5.898438-.632812 1.796875-1.507812 3.351562-2.621093 4.660156-1.117188 1.308594-2.445313 2.332032-3.984376 3.058594-1.535156.726562-3.195312 1.089844-4.972656 1.089844-1.816406 0-3.480468-.363282-5-1.089844-1.523437-.730469-2.839844-1.746094-3.957031-3.058594s-1.992187-2.863281-2.621094-4.660156c-.632812-1.796875-.949219-3.761719-.949219-5.898438 0-2.136718.316407-4.101562.949219-5.898437.628907-1.796875 1.503907-3.347656 2.621094-4.660156 1.113281-1.308594 2.433594-2.335938 3.957031-3.082031 1.519532-.746094 3.1875-1.117188 5-1.117188 1.777344 0 3.4375.375 4.972656 1.117188 1.539063.746093 2.867188 1.773437 3.984376 3.082031 1.113281 1.3125 1.988281 2.863281 2.621093 4.660156.632813 1.796875.945313 3.761719.945313 5.898437zm-6.554688 0c0-1.292968-.144531-2.484374-.4375-3.566406-.289062-1.085937-.703125-2.015625-1.234375-2.792968-.535156-.777344-1.164062-1.375-1.894531-1.796876-.726562-.417968-1.527344-.628906-2.402344-.628906-.90625 0-1.722656.210938-2.453125.628906-.726562.421876-1.359375 1.019532-1.894531 1.796876-.53125.777343-.945312 1.707031-1.234375 2.792968-.292969 1.082032-.4375 2.273438-.4375 3.566406 0 1.296876.144531 2.476563.4375 3.542969.289063 1.070313.703125 1.992188 1.234375 2.769531.535156.777344 1.167969 1.375 1.894531 1.792969.730469.421875 1.546875.632813 2.453125.632813.875 0 1.675782-.210938 2.402344-.632813.730469-.417969 1.359375-1.019531 1.894531-1.792969.535157-.777343.945313-1.699218 1.234375-2.769531.292969-1.066406.4375-2.246093.4375-3.542969zm0 0"/><path d="m251.4375 173.609375v5.871094h-19.710938v-5.871094h6.894532v-14.710937c-.292969.386718-.753906.785156-1.386719 1.1875-.628906.40625-1.316406.785156-2.0625 1.140624-.742187.359376-1.511719.648438-2.304687.875-.792969.226563-1.496094.339844-2.113282.339844v-6.070312c.585938 0 1.296875-.183594 2.136719-.554688.84375-.375 1.667969-.820312 2.476563-1.335937.808593-.515625 1.511718-1.027344 2.109374-1.53125.601563-.5.980469-.894531 1.140626-1.1875h6.652343v21.847656zm0 0"/></g><path d="m281.242188 165.257812c0 2.136719-.3125 4.101563-.945313 5.898438s-1.507813 3.351562-2.621094 4.660156c-1.117187 1.3125-2.445312 2.332032-3.980469 3.058594-1.539062.726562-3.199218 1.089844-4.976562 1.089844-1.8125 0-3.480469-.363282-5-1.089844-1.523438-.730469-2.839844-1.746094-3.957031-3.058594-1.117188-1.3125-1.992188-2.863281-2.621094-4.660156-.632813-1.796875-.949219-3.761719-.949219-5.898438 0-2.136718.316406-4.101562.949219-5.898437.628906-1.796875 1.503906-3.347656 2.621094-4.660156 1.117187-1.308594 2.433593-2.335938 3.957031-3.082031 1.519531-.746094 3.1875-1.117188 5-1.117188 1.777344 0 3.4375.375 4.976562 1.117188 1.535157.746093 2.863282 1.773437 3.980469 3.082031 1.113281 1.3125 1.988281 2.863281 2.621094 4.660156s.945313 3.761719.945313 5.898437zm-6.554688 0c0-1.292968-.144531-2.484374-.433594-3.566406-.292968-1.085937-.703125-2.015625-1.238281-2.792968-.535156-.777344-1.164063-1.375-1.894531-1.796876-.726563-.417968-1.527344-.628906-2.402344-.628906-.90625 0-1.722656.210938-2.453125.628906-.726563.421876-1.359375 1.019532-1.894531 1.796876-.53125.777343-.945313 1.707031-1.234375 2.792968-.292969 1.082032-.4375 2.273438-.4375 3.566406 0 1.296876.144531 2.476563.4375 3.542969.289062 1.070313.703125 1.992188 1.234375 2.769531.535156.777344 1.167968 1.375 1.894531 1.792969.730469.421875 1.546875.632813 2.453125.632813.875 0 1.675781-.210938 2.402344-.632813.730468-.417969 1.359375-1.019531 1.894531-1.792969.535156-.777343.945313-1.699218 1.238281-2.769531.289063-1.066406.433594-2.246093.433594-3.542969zm0 0" fill="#fff5cb"/><path d="m307.652344 173.609375v5.871094h-19.710938v-5.871094h6.894532v-14.710937c-.292969.386718-.753907.785156-1.382813 1.1875-.632813.40625-1.320313.785156-2.0625 1.140624-.746094.359376-1.515625.648438-2.308594.875-.792969.226563-1.496093.339844-2.109375.339844v-6.070312c.582032 0 1.292969-.183594 2.132813-.554688.84375-.375 1.667969-.820312 2.476562-1.335937.808594-.515625 1.515625-1.027344 2.113281-1.53125.597657-.5.976563-.894531 1.140626-1.1875h6.648437v21.847656zm0 0" fill="#fff5cb"/><path d="m337.460938 165.257812c0 2.136719-.316407 4.101563-.949219 5.898438-.628907 1.796875-1.503907 3.351562-2.621094 4.660156-1.117187 1.3125-2.445313 2.332032-3.980469 3.058594-1.539062.726562-3.195312 1.089844-4.976562 1.089844-1.8125 0-3.480469-.363282-5-1.089844-1.523438-.730469-2.839844-1.746094-3.957032-3.058594-1.113281-1.3125-1.988281-2.863281-2.621093-4.660156-.628907-1.796875-.945313-3.761719-.945313-5.898438 0-2.136718.316406-4.101562.945313-5.898437.632812-1.796875 1.507812-3.347656 2.621093-4.660156 1.117188-1.308594 2.4375-2.335938 3.957032-3.082031 1.519531-.746094 3.1875-1.117188 5-1.117188 1.78125 0 3.4375.375 4.976562 1.117188 1.535156.746093 2.863282 1.773437 3.980469 3.082031 1.117187 1.3125 1.992187 2.863281 2.621094 4.660156.632812 1.796875.949219 3.761719.949219 5.898437zm-6.554688 0c0-1.292968-.144531-2.484374-.4375-3.566406-.292969-1.085937-.703125-2.015625-1.238281-2.792968-.535157-.777344-1.164063-1.375-1.894531-1.796876-.726563-.417968-1.527344-.628906-2.402344-.628906-.90625 0-1.722656.210938-2.449219.628906-.730469.421876-1.359375 1.019532-1.894531 1.796876-.535156.777343-.945313 1.707031-1.238282 2.792968-.292968 1.082032-.4375 2.273438-.4375 3.566406 0 1.296876.144532 2.476563.4375 3.542969.292969 1.070313.703126 1.992188 1.238282 2.769531.535156.777344 1.164062 1.375 1.894531 1.792969.726563.421875 1.542969.632813 2.449219.632813.875 0 1.675781-.210938 2.402344-.632813.730468-.417969 1.359374-1.019531 1.894531-1.792969.535156-.777343.945312-1.699218 1.238281-2.769531.292969-1.066406.4375-2.246093.4375-3.542969zm0 0" fill="#fff5cb"/><path d="m363.867188 173.609375v5.871094h-19.710938v-5.871094h6.894531v-14.710937c-.289062.386718-.75.785156-1.382812 1.1875-.632813.40625-1.320313.785156-2.0625 1.140624-.746094.359376-1.515625.648438-2.308594.875-.792969.226563-1.496094.339844-2.109375.339844v-6.070312c.582031 0 1.292969-.183594 2.132812-.554688.84375-.375 1.667969-.820312 2.476563-1.335937s1.515625-1.027344 2.113281-1.53125c.597656-.5.980469-.894531 1.140625-1.1875h6.652344v21.847656zm0 0" fill="#fff5cb"/><path d="m393.675781 165.257812c0 2.136719-.316406 4.101563-.949219 5.898438-.628906 1.796875-1.503906 3.351562-2.621093 4.660156-1.117188 1.3125-2.445313 2.332032-3.980469 3.058594s-3.195312 1.089844-4.976562 1.089844c-1.8125 0-3.476563-.363282-5-1.089844-1.519532-.730469-2.839844-1.746094-3.957032-3.058594-1.117187-1.3125-1.988281-2.863281-2.621094-4.660156-.628906-1.796875-.945312-3.761719-.945312-5.898438 0-2.136718.3125-4.101562.945312-5.898437.632813-1.796875 1.503907-3.347656 2.621094-4.660156 1.117188-1.308594 2.4375-2.335938 3.957032-3.082031 1.523437-.746094 3.1875-1.117188 5-1.117188 1.78125 0 3.441406.375 4.976562 1.117188 1.535156.746093 2.863281 1.773437 3.980469 3.082031 1.117187 1.3125 1.992187 2.863281 2.621093 4.660156.632813 1.796875.949219 3.761719.949219 5.898437zm-6.554687 0c0-1.292968-.144532-2.484374-.4375-3.566406-.292969-1.085937-.703125-2.015625-1.238282-2.792968-.535156-.777344-1.164062-1.375-1.894531-1.796876-.726562-.417968-1.527343-.628906-2.402343-.628906-.90625 0-1.722657.210938-2.449219.628906-.730469.421876-1.359375 1.019532-1.894531 1.796876-.535157.777343-.945313 1.707031-1.238282 2.792968-.292968 1.082032-.4375 2.273438-.4375 3.566406 0 1.296876.144532 2.476563.4375 3.542969.292969 1.070313.703125 1.992188 1.238282 2.769531.535156.777344 1.164062 1.375 1.894531 1.792969.726562.421875 1.542969.632813 2.449219.632813.875 0 1.675781-.210938 2.402343-.632813.730469-.417969 1.359375-1.019531 1.894531-1.792969.535157-.777343.949219-1.699218 1.238282-2.769531.292968-1.066406.4375-2.246093.4375-3.542969zm0 0" fill="#fff5cb"/><path d="m143.617188 223.511719c0 2.136719-.3125 4.101562-.945313 5.898437s-1.507813 3.351563-2.621094 4.660156c-1.117187 1.3125-2.445312 2.332032-3.980469 3.058594-1.539062.726563-3.199218 1.09375-4.976562 1.09375-1.8125 0-3.480469-.367187-5-1.09375-1.523438-.726562-2.839844-1.746094-3.957031-3.058594-1.117188-1.308593-1.988281-2.863281-2.621094-4.660156s-.945313-3.761718-.945313-5.898437.3125-4.101563.945313-5.898438c.628906-1.796875 1.503906-3.347656 2.621094-4.660156 1.117187-1.308594 2.433593-2.339844 3.957031-3.082031 1.519531-.746094 3.1875-1.117188 5-1.117188 1.777344 0 3.4375.375 4.976562 1.117188 1.535157.742187 2.863282 1.769531 3.980469 3.082031 1.113281 1.3125 1.988281 2.863281 2.621094 4.660156s.945313 3.765625.945313 5.898438zm-6.554688 0c0-1.292969-.144531-2.484375-.433594-3.566407-.292968-1.085937-.703125-2.015624-1.238281-2.792968s-1.164063-1.375-1.894531-1.796875c-.726563-.417969-1.527344-.628907-2.402344-.628907-.90625 0-1.722656.210938-2.453125.628907-.726563.421875-1.359375 1.023437-1.894531 1.796875-.53125.777344-.945313 1.707031-1.234375 2.792968-.292969 1.082032-.4375 2.273438-.4375 3.566407 0 1.296875.144531 2.476562.4375 3.542969.289062 1.070312.703125 1.992187 1.234375 2.769531.535156.777343 1.167968 1.375 1.894531 1.792969.730469.421874 1.546875.632812 2.453125.632812.875 0 1.675781-.210938 2.402344-.632812.730468-.417969 1.359375-1.019532 1.894531-1.792969.535156-.777344.945313-1.699219 1.238281-2.769531.289063-1.066407.433594-2.246094.433594-3.542969zm0 0" fill="#fff"/><path d="m170.027344 231.863281v5.875h-19.710938v-5.875h6.894532v-14.710937c-.289063.390625-.75.785156-1.382813 1.191406-.632813.402344-1.320313.785156-2.0625 1.140625-.746094.355469-1.515625.648437-2.308594.875s-1.496093.339844-2.109375.339844v-6.070313c.582032 0 1.292969-.183594 2.132813-.558594.84375-.371093 1.667969-.816406 2.476562-1.332031.808594-.519531 1.515625-1.027343 2.113281-1.53125.597657-.5.980469-.898437 1.140626-1.1875h6.652343v21.84375zm0 0" fill="#fff"/><path d="m199.832031 223.511719c0 2.136719-.3125 4.101562-.945312 5.898437-.632813 1.796875-1.503907 3.351563-2.621094 4.660156-1.117187 1.3125-2.445313 2.332032-3.984375 3.058594-1.535156.726563-3.195312 1.09375-4.972656 1.09375-1.816406 0-3.480469-.367187-5-1.09375-1.523438-.726562-2.839844-1.746094-3.957032-3.058594-1.117187-1.308593-1.992187-2.863281-2.625-4.660156-.628906-1.796875-.945312-3.761718-.945312-5.898437s.316406-4.101563.945312-5.898438c.632813-1.796875 1.507813-3.347656 2.625-4.660156 1.113282-1.308594 2.433594-2.339844 3.957032-3.082031 1.519531-.746094 3.183594-1.117188 5-1.117188 1.777344 0 3.4375.375 4.972656 1.117188 1.539062.742187 2.867188 1.769531 3.984375 3.082031 1.113281 1.3125 1.988281 2.863281 2.621094 4.660156.632812 1.796875.945312 3.765625.945312 5.898438zm-6.554687 0c0-1.292969-.144532-2.484375-.433594-3.566407-.292969-1.085937-.703125-2.015624-1.238281-2.792968-.535157-.777344-1.164063-1.375-1.894531-1.796875-.726563-.417969-1.527344-.628907-2.402344-.628907-.90625 0-1.722656.210938-2.453125.628907-.726563.421875-1.359375 1.023437-1.890625 1.796875-.535156.777344-.949219 1.707031-1.238282 2.792968-.292968 1.082032-.4375 2.273438-.4375 3.566407 0 1.296875.144532 2.476562.4375 3.542969.289063 1.070312.703126 1.992187 1.238282 2.769531.53125.777343 1.164062 1.375 1.890625 1.792969.730469.421874 1.546875.632812 2.453125.632812.875 0 1.675781-.210938 2.402344-.632812.730468-.417969 1.359374-1.019532 1.894531-1.792969.535156-.777344.945312-1.699219 1.238281-2.769531.289062-1.066407.433594-2.246094.433594-3.542969zm0 0" fill="#fff"/><path d="m226.242188 231.863281v5.875h-19.710938v-5.875h6.894531v-14.710937c-.292969.390625-.753906.785156-1.386719 1.191406-.628906.402344-1.316406.785156-2.0625 1.140625-.742187.355469-1.511718.648437-2.304687.875s-1.496094.339844-2.113281.339844v-6.070313c.582031 0 1.296875-.183594 2.136718-.558594.84375-.371093 1.667969-.816406 2.476563-1.332031.808594-.519531 1.511719-1.027343 2.109375-1.53125.601562-.5.980469-.898437 1.144531-1.1875h6.648438v21.84375zm0 0" fill="#fff"/><path d="m256.050781 223.511719c0 2.136719-.316406 4.101562-.949219 5.898437-.628906 1.796875-1.503906 3.351563-2.621093 4.660156-1.117188 1.3125-2.445313 2.332032-3.980469 3.058594-1.535156.726563-3.195312 1.09375-4.976562 1.09375-1.8125 0-3.476563-.367187-5-1.09375-1.519532-.726562-2.839844-1.746094-3.957032-3.058594-1.113281-1.308593-1.988281-2.863281-2.621094-4.660156-.628906-1.796875-.945312-3.761718-.945312-5.898437s.316406-4.101563.945312-5.898438c.632813-1.796875 1.507813-3.347656 2.621094-4.660156 1.117188-1.308594 2.4375-2.339844 3.957032-3.082031 1.523437-.746094 3.1875-1.117188 5-1.117188 1.78125 0 3.441406.375 4.976562 1.117188 1.535156.742187 2.863281 1.769531 3.980469 3.082031 1.117187 1.3125 1.992187 2.863281 2.621093 4.660156.632813 1.796875.949219 3.765625.949219 5.898438zm-6.554687 0c0-1.292969-.144532-2.484375-.4375-3.566407-.292969-1.085937-.703125-2.015624-1.238282-2.792968-.535156-.777344-1.164062-1.375-1.894531-1.796875-.726562-.417969-1.527343-.628907-2.402343-.628907-.90625 0-1.722657.210938-2.449219.628907-.730469.421875-1.359375 1.023437-1.894531 1.796875-.535157.777344-.945313 1.707031-1.238282 2.792968-.292968 1.082032-.4375 2.273438-.4375 3.566407 0 1.296875.144532 2.476562.4375 3.542969.292969 1.070312.703125 1.992187 1.238282 2.769531.535156.777343 1.164062 1.375 1.894531 1.792969.726562.421874 1.542969.632812 2.449219.632812.875 0 1.675781-.210938 2.402343-.632812.730469-.417969 1.359375-1.019532 1.894531-1.792969.535157-.777344.945313-1.699219 1.238282-2.769531.292968-1.066407.4375-2.246094.4375-3.542969zm0 0" fill="#fff"/><path d="m282.457031 231.863281v5.875h-19.710937v-5.875h6.894531v-14.710937c-.292969.390625-.753906.785156-1.382813 1.191406-.628906.402344-1.320312.785156-2.0625 1.140625-.746093.355469-1.515624.648437-2.308593.875s-1.496094.339844-2.113281.339844v-6.070313c.582031 0 1.296874-.183594 2.136718-.558594.84375-.371093 1.667969-.816406 2.476563-1.332031.808593-.519531 1.511719-1.027343 2.109375-1.53125.601562-.5.980468-.898437 1.144531-1.1875h6.648437v21.84375zm0 0" fill="#fff5cb"/><path d="m307.652344 231.863281v5.875h-19.710938v-5.875h6.894532v-14.710937c-.292969.390625-.753907.785156-1.382813 1.191406-.632813.402344-1.320313.785156-2.0625 1.140625-.746094.355469-1.515625.648437-2.308594.875s-1.496093.339844-2.109375.339844v-6.070313c.582032 0 1.292969-.183594 2.132813-.558594.84375-.371093 1.667969-.816406 2.476562-1.332031.808594-.519531 1.515625-1.027343 2.113281-1.53125.597657-.5.976563-.898437 1.140626-1.1875h6.648437v21.84375zm0 0" fill="#fff5cb"/><path d="m337.460938 223.511719c0 2.136719-.316407 4.101562-.949219 5.898437-.628907 1.796875-1.503907 3.351563-2.621094 4.660156-1.117187 1.3125-2.445313 2.332032-3.980469 3.058594-1.539062.726563-3.195312 1.09375-4.976562 1.09375-1.8125 0-3.480469-.367187-5-1.09375-1.523438-.726562-2.839844-1.746094-3.957032-3.058594-1.113281-1.308593-1.988281-2.863281-2.621093-4.660156-.628907-1.796875-.945313-3.761718-.945313-5.898437s.316406-4.101563.945313-5.898438c.632812-1.796875 1.507812-3.347656 2.621093-4.660156 1.117188-1.308594 2.4375-2.339844 3.957032-3.082031 1.519531-.746094 3.1875-1.117188 5-1.117188 1.78125 0 3.4375.375 4.976562 1.117188 1.535156.742187 2.863282 1.769531 3.980469 3.082031s1.992187 2.863281 2.621094 4.660156c.632812 1.796875.949219 3.765625.949219 5.898438zm-6.554688 0c0-1.292969-.144531-2.484375-.4375-3.566407-.292969-1.085937-.703125-2.015624-1.238281-2.792968-.535157-.777344-1.164063-1.375-1.894531-1.796875-.726563-.417969-1.527344-.628907-2.402344-.628907-.90625 0-1.722656.210938-2.449219.628907-.730469.421875-1.359375 1.023437-1.894531 1.796875-.535156.777344-.945313 1.707031-1.238282 2.792968-.292968 1.082032-.4375 2.273438-.4375 3.566407 0 1.296875.144532 2.476562.4375 3.542969.292969 1.070312.703126 1.992187 1.238282 2.769531.535156.777343 1.164062 1.375 1.894531 1.792969.726563.421874 1.542969.632812 2.449219.632812.875 0 1.675781-.210938 2.402344-.632812.730468-.417969 1.359374-1.019532 1.894531-1.792969.535156-.777344.945312-1.699219 1.238281-2.769531.292969-1.066407.4375-2.246094.4375-3.542969zm0 0" fill="#fff5cb"/><path d="m363.867188 231.863281v5.875h-19.710938v-5.875h6.894531v-14.710937c-.289062.390625-.75.785156-1.382812 1.191406-.632813.402344-1.320313.785156-2.0625 1.140625-.746094.355469-1.515625.648437-2.308594.875s-1.496094.339844-2.109375.339844v-6.070313c.582031 0 1.292969-.183594 2.132812-.558594.84375-.371093 1.667969-.816406 2.476563-1.332031.808594-.519531 1.515625-1.027343 2.113281-1.53125.597656-.5.980469-.898437 1.140625-1.1875h6.652344v21.84375zm0 0" fill="#fff5cb"/><path d="m393.675781 223.511719c0 2.136719-.316406 4.101562-.949219 5.898437-.628906 1.796875-1.503906 3.351563-2.621093 4.660156-1.117188 1.3125-2.445313 2.332032-3.980469 3.058594-1.535156.726563-3.195312 1.09375-4.976562 1.09375-1.8125 0-3.476563-.367187-5-1.09375-1.519532-.726562-2.839844-1.746094-3.957032-3.058594-1.117187-1.308593-1.988281-2.863281-2.621094-4.660156-.628906-1.796875-.945312-3.761718-.945312-5.898437s.3125-4.101563.945312-5.898438c.632813-1.796875 1.503907-3.347656 2.621094-4.660156 1.117188-1.308594 2.4375-2.339844 3.957032-3.082031 1.523437-.746094 3.1875-1.117188 5-1.117188 1.78125 0 3.441406.375 4.976562 1.117188 1.535156.742187 2.863281 1.769531 3.980469 3.082031 1.117187 1.3125 1.992187 2.863281 2.621093 4.660156.632813 1.796875.949219 3.765625.949219 5.898438zm-6.554687 0c0-1.292969-.144532-2.484375-.4375-3.566407-.292969-1.085937-.703125-2.015624-1.238282-2.792968-.535156-.777344-1.164062-1.375-1.894531-1.796875-.726562-.417969-1.527343-.628907-2.402343-.628907-.90625 0-1.722657.210938-2.449219.628907-.730469.421875-1.359375 1.023437-1.894531 1.796875-.535157.777344-.945313 1.707031-1.238282 2.792968-.292968 1.082032-.4375 2.273438-.4375 3.566407 0 1.296875.144532 2.476562.4375 3.542969.292969 1.070312.703125 1.992187 1.238282 2.769531.535156.777343 1.164062 1.375 1.894531 1.792969.726562.421874 1.542969.632812 2.449219.632812.875 0 1.675781-.210938 2.402343-.632812.730469-.417969 1.359375-1.019532 1.894531-1.792969.535157-.777344.949219-1.699219 1.238282-2.769531.292968-1.066407.4375-2.246094.4375-3.542969zm0 0" fill="#fff5cb"/><path d="m139.007812 290.117188v5.875h-19.710937v-5.875h6.894531v-14.707032c-.292968.386719-.753906.785156-1.386718 1.1875-.628907.40625-1.316407.785156-2.0625 1.140625-.746094.355469-1.511719.648438-2.304688.875-.792969.226563-1.496094.339844-2.113281.339844v-6.066406c.582031 0 1.292969-.1875 2.136719-.558594.84375-.375 1.667968-.816406 2.476562-1.335937.808594-.515626 1.511719-1.027344 2.109375-1.527344.601563-.503906.980469-.898438 1.140625-1.191406h6.652344v21.847656h6.167968zm0 0" fill="#fff"/><path d="m168.8125 281.769531c0 2.132813-.316406 4.101563-.945312 5.894531-.632813 1.796876-1.507813 3.351563-2.621094 4.660157-1.117188 1.3125-2.445313 2.332031-3.980469 3.058593-1.539063.730469-3.199219 1.09375-4.976563 1.09375-1.8125 0-3.480468-.363281-5-1.09375-1.523437-.726562-2.839843-1.746093-3.957031-3.058593-1.117187-1.308594-1.988281-2.863281-2.621093-4.660157-.632813-1.792968-.949219-3.761718-.949219-5.894531 0-2.136719.316406-4.105469.949219-5.898437.632812-1.796875 1.503906-3.351563 2.621093-4.660156 1.117188-1.3125 2.433594-2.339844 3.957031-3.082032 1.519532-.746094 3.1875-1.117187 5-1.117187 1.777344 0 3.4375.371093 4.976563 1.117187 1.535156.742188 2.863281 1.769532 3.980469 3.082032 1.113281 1.308593 1.988281 2.863281 2.621094 4.660156.628906 1.792968.945312 3.761718.945312 5.898437zm-6.554688 0c0-1.296875-.144531-2.484375-.4375-3.570312-.289062-1.082031-.703124-2.011719-1.234374-2.789063-.535157-.777344-1.164063-1.375-1.894532-1.796875-.726562-.421875-1.53125-.632812-2.402344-.632812-.90625 0-1.722656.210937-2.453124.632812-.726563.421875-1.359376 1.019531-1.894532 1.796875-.53125.777344-.945312 1.707032-1.234375 2.789063-.292969 1.085937-.4375 2.273437-.4375 3.570312 0 1.292969.144531 2.472657.4375 3.542969.289063 1.066406.703125 1.988281 1.234375 2.765625.535156.777344 1.167969 1.375 1.894532 1.796875.730468.421875 1.546874.632812 2.453124.632812.871094 0 1.675782-.210937 2.402344-.632812.730469-.421875 1.359375-1.019531 1.894532-1.796875.53125-.777344.945312-1.699219 1.234374-2.765625.292969-1.070312.4375-2.25.4375-3.542969zm0 0" fill="#fff"/><path d="m195.222656 290.117188v5.875h-19.710937v-5.875h6.894531v-14.707032c-.292969.386719-.753906.785156-1.386719 1.1875-.628906.40625-1.316406.785156-2.0625 1.140625-.742187.355469-1.511719.648438-2.304687.875-.792969.226563-1.496094.339844-2.113282.339844v-6.066406c.582032 0 1.296876-.1875 2.136719-.558594.84375-.375 1.667969-.816406 2.476563-1.335937.808594-.515626 1.511718-1.027344 2.113281-1.527344.597656-.503906.976563-.898438 1.140625-1.191406h6.652344v21.847656h6.164062zm0 0" fill="#fff"/><path d="m225.027344 281.769531c0 2.132813-.3125 4.101563-.945313 5.894531-.632812 1.796876-1.507812 3.351563-2.621093 4.660157-1.117188 1.3125-2.445313 2.332031-3.984376 3.058593-1.535156.730469-3.195312 1.09375-4.972656 1.09375-1.816406 0-3.480468-.363281-5-1.09375-1.523437-.726562-2.839844-1.746093-3.957031-3.058593-1.117187-1.308594-1.992187-2.863281-2.621094-4.660157-.632812-1.792968-.949219-3.761718-.949219-5.894531 0-2.136719.316407-4.105469.949219-5.898437.628907-1.796875 1.503907-3.351563 2.621094-4.660156 1.113281-1.3125 2.433594-2.339844 3.957031-3.082032 1.519532-.746094 3.1875-1.117187 5-1.117187 1.777344 0 3.4375.371093 4.972656 1.117187 1.539063.742188 2.867188 1.769532 3.984376 3.082032 1.113281 1.308593 1.988281 2.863281 2.621093 4.660156.632813 1.792968.945313 3.761718.945313 5.898437zm-6.554688 0c0-1.296875-.144531-2.484375-.4375-3.570312-.289062-1.082031-.703125-2.011719-1.234375-2.789063-.535156-.777344-1.164062-1.375-1.894531-1.796875-.726562-.421875-1.527344-.632812-2.402344-.632812-.90625 0-1.722656.210937-2.453125.632812-.726562.421875-1.359375 1.019531-1.894531 1.796875-.53125.777344-.945312 1.707032-1.234375 2.789063-.292969 1.085937-.4375 2.273437-.4375 3.570312 0 1.292969.144531 2.472657.4375 3.542969.289063 1.066406.703125 1.988281 1.234375 2.765625.535156.777344 1.167969 1.375 1.894531 1.796875.730469.421875 1.546875.632812 2.453125.632812.875 0 1.675782-.210937 2.402344-.632812.730469-.421875 1.359375-1.019531 1.894531-1.796875.535157-.777344.945313-1.699219 1.234375-2.765625.292969-1.070312.4375-2.25.4375-3.542969zm0 0" fill="#fff"/><path d="m256.050781 281.769531c0 2.132813-.316406 4.101563-.949219 5.894531-.628906 1.796876-1.503906 3.351563-2.621093 4.660157-1.117188 1.3125-2.445313 2.332031-3.980469 3.058593-1.535156.730469-3.195312 1.09375-4.976562 1.09375-1.8125 0-3.476563-.363281-5-1.09375-1.519532-.726562-2.839844-1.746093-3.957032-3.058593-1.113281-1.308594-1.988281-2.863281-2.621094-4.660157-.628906-1.792968-.945312-3.761718-.945312-5.894531 0-2.136719.316406-4.105469.945312-5.898437.632813-1.796875 1.507813-3.351563 2.621094-4.660156 1.117188-1.3125 2.4375-2.339844 3.957032-3.082032 1.523437-.746094 3.1875-1.117187 5-1.117187 1.78125 0 3.441406.371093 4.976562 1.117187 1.535156.742188 2.863281 1.769532 3.980469 3.082032 1.117187 1.308593 1.992187 2.863281 2.621093 4.660156.632813 1.792968.949219 3.761718.949219 5.898437zm-6.554687 0c0-1.296875-.144532-2.484375-.4375-3.570312-.292969-1.082031-.703125-2.011719-1.238282-2.789063-.535156-.777344-1.164062-1.375-1.894531-1.796875-.726562-.421875-1.527343-.632812-2.402343-.632812-.90625 0-1.722657.210937-2.449219.632812-.730469.421875-1.359375 1.019531-1.894531 1.796875-.535157.777344-.945313 1.707032-1.238282 2.789063-.292968 1.085937-.4375 2.273437-.4375 3.570312 0 1.292969.144532 2.472657.4375 3.542969.292969 1.066406.703125 1.988281 1.238282 2.765625.535156.777344 1.164062 1.375 1.894531 1.796875.726562.421875 1.542969.632812 2.449219.632812.875 0 1.675781-.210937 2.402343-.632812.730469-.421875 1.359375-1.019531 1.894531-1.796875.535157-.777344.945313-1.699219 1.238282-2.765625.292968-1.070312.4375-2.25.4375-3.542969zm0 0" fill="#fff"/><path d="m282.457031 290.117188v5.875h-19.710937v-5.875h6.894531v-14.707032c-.292969.386719-.753906.785156-1.382813 1.1875-.628906.40625-1.320312.785156-2.0625 1.140625-.746093.355469-1.515624.648438-2.308593.875-.792969.226563-1.496094.339844-2.113281.339844v-6.066406c.582031 0 1.296874-.1875 2.136718-.558594.84375-.375 1.667969-.816406 2.476563-1.335937.808593-.515626 1.511719-1.027344 2.109375-1.527344.601562-.503906.980468-.898438 1.144531-1.191406h6.648437v21.847656h6.167969zm0 0" fill="#fff5cb"/><path d="m312.265625 281.769531c0 2.132813-.316406 4.101563-.949219 5.894531-.628906 1.796876-1.503906 3.351563-2.621094 4.660157-1.117187 1.3125-2.441406 2.332031-3.980468 3.058593-1.535156.730469-3.195313 1.09375-4.976563 1.09375-1.8125 0-3.476562-.363281-5-1.09375-1.519531-.726562-2.839843-1.746093-3.957031-3.058593-1.117188-1.308594-1.992188-2.863281-2.621094-4.660157-.632812-1.792968-.945312-3.761718-.945312-5.894531 0-2.136719.3125-4.105469.945312-5.898437.628906-1.796875 1.503906-3.351563 2.621094-4.660156 1.117188-1.3125 2.4375-2.339844 3.957031-3.082032 1.523438-.746094 3.1875-1.117187 5-1.117187 1.78125 0 3.441407.371093 4.976563 1.117187 1.539062.742188 2.863281 1.769532 3.980468 3.082032 1.117188 1.308593 1.992188 2.863281 2.621094 4.660156.632813 1.792968.949219 3.761718.949219 5.898437zm-6.554687 0c0-1.296875-.144532-2.484375-.4375-3.570312-.292969-1.082031-.703126-2.011719-1.238282-2.789063s-1.164062-1.375-1.894531-1.796875c-.726563-.421875-1.527344-.632812-2.402344-.632812-.90625 0-1.722656.210937-2.449219.632812-.730468.421875-1.359374 1.019531-1.894531 1.796875-.535156.777344-.945312 1.707032-1.238281 2.789063-.292969 1.085937-.4375 2.273437-.4375 3.570312 0 1.292969.144531 2.472657.4375 3.542969.292969 1.066406.703125 1.988281 1.238281 2.765625.535157.777344 1.164063 1.375 1.894531 1.796875.726563.421875 1.542969.632812 2.449219.632812.875 0 1.675781-.210937 2.402344-.632812.730469-.421875 1.359375-1.019531 1.894531-1.796875s.945313-1.699219 1.238282-2.765625c.292968-1.070312.4375-2.25.4375-3.542969zm0 0" fill="#fff5cb"/><path d="m338.671875 290.117188v5.875h-19.707031v-5.875h6.890625v-14.707032c-.289063.386719-.75.785156-1.382813 1.1875-.628906.40625-1.320312.785156-2.0625 1.140625-.746094.355469-1.515625.648438-2.308594.875-.792968.226563-1.496093.339844-2.109374.339844v-6.066406c.582031 0 1.292968-.1875 2.136718-.558594.839844-.375 1.664063-.816406 2.472656-1.335937.808594-.515626 1.515626-1.027344 2.113282-1.527344.597656-.503906.976562-.898438 1.140625-1.191406h6.652343v21.847656h6.164063zm0 0" fill="#fff5cb"/><path d="m363.867188 290.117188v5.875h-19.710938v-5.875h6.894531v-14.707032c-.289062.386719-.75.785156-1.382812 1.1875-.632813.40625-1.320313.785156-2.0625 1.140625-.746094.355469-1.515625.648438-2.308594.875-.792969.226563-1.496094.339844-2.109375.339844v-6.066406c.582031 0 1.292969-.1875 2.132812-.558594.84375-.375 1.667969-.816406 2.476563-1.335937.808594-.515626 1.515625-1.027344 2.113281-1.527344.597656-.503906.980469-.898438 1.140625-1.191406h6.652344v21.847656h6.164063zm0 0" fill="#fff5cb"/><path d="m393.675781 281.769531c0 2.132813-.316406 4.101563-.949219 5.894531-.628906 1.796876-1.503906 3.351563-2.621093 4.660157-1.117188 1.3125-2.445313 2.332031-3.980469 3.058593-1.535156.730469-3.195312 1.09375-4.976562 1.09375-1.8125 0-3.476563-.363281-5-1.09375-1.519532-.726562-2.839844-1.746093-3.957032-3.058593-1.117187-1.308594-1.988281-2.863281-2.621094-4.660157-.628906-1.792968-.945312-3.761718-.945312-5.894531 0-2.136719.3125-4.105469.945312-5.898437.632813-1.796875 1.503907-3.351563 2.621094-4.660156 1.117188-1.3125 2.4375-2.339844 3.957032-3.082032 1.523437-.746094 3.1875-1.117187 5-1.117187 1.78125 0 3.441406.371093 4.976562 1.117187 1.535156.742188 2.863281 1.769532 3.980469 3.082032 1.117187 1.308593 1.992187 2.863281 2.621093 4.660156.632813 1.792968.949219 3.761718.949219 5.898437zm-6.554687 0c0-1.296875-.144532-2.484375-.4375-3.570312-.292969-1.082031-.703125-2.011719-1.238282-2.789063-.535156-.777344-1.164062-1.375-1.894531-1.796875-.726562-.421875-1.527343-.632812-2.402343-.632812-.90625 0-1.722657.210937-2.449219.632812-.730469.421875-1.359375 1.019531-1.894531 1.796875-.535157.777344-.945313 1.707032-1.238282 2.789063-.292968 1.085937-.4375 2.273437-.4375 3.570312 0 1.292969.144532 2.472657.4375 3.542969.292969 1.066406.703125 1.988281 1.238282 2.765625.535156.777344 1.164062 1.375 1.894531 1.796875.726562.421875 1.542969.632812 2.449219.632812.875 0 1.675781-.210937 2.402343-.632812.730469-.421875 1.359375-1.019531 1.894531-1.796875.535157-.777344.949219-1.699219 1.238282-2.765625.292968-1.070312.4375-2.25.4375-3.542969zm0 0" fill="#fff5cb"/>
        </g>
        <g id="third" transform="scale(0.17)">
            <path d="m512 256c0 141.386719-114.613281 256-256 256s-256-114.613281-256-256 114.613281-256 256-256 256 114.613281 256 256zm0 0" fill="#ffec97"/><path d="m512 256c0-3.5-.089844-6.980469-.230469-10.445312l-245.320312-245.324219c-.003907 0-.007813 0-.007813 0-1.667968-.070313-3.339844-.121094-5.011718-.1640628-1.808594-.0351562-3.613282-.0664062-5.429688-.0664062s-3.621094.03125-5.429688.0703125c-1.671874.0390625-3.34375.0937495-5.011718.1601565h-.003906v123.261719h-26.136719c-11.507813 0-20.832031 9.324218-20.832031 20.832031v8.882812h-38.652344c-49.761719 0-90.476563 40.714844-90.476563 90.476563v99.160156c0 18.585938 8.652344 35.140625 22.136719 45.886719 0 0 59.070312 59.246093 118.984375 119.25 14.742187 2.640625 29.921875 4.019531 45.421875 4.019531 141.386719 0 256-114.613281 256-256zm0 0" fill="#ffd400"/><path d="m266.449219 127.65625v-127.425781c-3.46875-.1406252-6.949219-.230469-10.449219-.230469s-6.980469.0898438-10.445312.230469v127.425781zm0 0" fill="#57555c"/><path d="m266.449219.230469v127.429687h-10.449219v-127.660156c3.5 0 6.980469.0898438 10.449219.230469zm0 0" fill="#3c3b41"/><path d="m313.417969 158.992188h-114.835938v-14.667969c0-11.507813 9.328125-20.832031 20.832031-20.832031h73.167969c11.507813 0 20.832031 9.324218 20.832031 20.832031v14.667969zm0 0" fill="#78777f"/><path d="m313.421875 144.320312v14.667969h-57.421875v-35.5h36.578125c11.511719 0 20.84375 9.332031 20.84375 20.832031zm0 0" fill="#57555c"/><path d="m352.070312 153.207031h-192.136718c-49.761719 0-90.476563 40.714844-90.476563 90.476563v99.160156c0 32.402344 26.269531 58.671875 58.671875 58.671875 28.25 0 52.484375-20.128906 57.675782-47.894531l8.257812-44.195313h123.878906l8.257813 44.195313c5.191406 27.765625 29.425781 47.894531 57.671875 47.894531 32.40625 0 58.675781-26.269531 58.675781-58.671875v-99.164062c-.003906-49.757813-40.71875-90.472657-90.476563-90.472657zm0 0" fill="#9331b2"/><path d="m442.539062 243.679688v99.160156c0 16.199218-6.570312 30.871094-17.179687 41.488281-10.621094 10.613281-25.289063 17.183594-41.488281 17.183594-28.25 0-52.480469-20.121094-57.671875-47.890625l-8.257813-44.191406h-61.941406v-156.21875h96.070312c49.757813 0 90.46875 40.710937 90.46875 90.46875zm0 0" fill="#5c1b6f"/><path d="m228.457031 240.335938h55.085938v26.859374h-55.085938zm0 0" fill="#00e8f2"/><g fill="#00b7be"><path d="m256 240.328125h27.539062v26.863281h-27.539062zm0 0"/><path d="m386.367188 212.742188c0 8.03125-6.507813 14.539062-14.539063 14.539062-8.027344 0-14.535156-6.507812-14.535156-14.539062 0-8.027344 6.507812-14.535157 14.535156-14.535157 8.03125 0 14.539063 6.507813 14.539063 14.535157zm0 0"/><path d="m386.367188 265.84375c0 8.03125-6.507813 14.539062-14.539063 14.539062-8.027344 0-14.535156-6.507812-14.535156-14.539062 0-8.027344 6.507812-14.535156 14.535156-14.535156 8.03125 0 14.539063 6.507812 14.539063 14.535156zm0 0"/></g><path d="m412.917969 239.296875c0 8.027344-6.507813 14.535156-14.535157 14.535156-8.03125 0-14.539062-6.507812-14.539062-14.535156 0-8.03125 6.507812-14.539063 14.539062-14.539063 8.027344 0 14.535157 6.507813 14.535157 14.539063zm0 0" fill="#ff9a00"/><path d="m359.816406 239.296875c0 8.027344-6.507812 14.535156-14.539062 14.535156-8.027344 0-14.535156-6.507812-14.535156-14.535156 0-8.03125 6.507812-14.539063 14.535156-14.539063 8.03125 0 14.539062 6.507813 14.539062 14.539063zm0 0" fill="#ff9a00"/><path d="m172.234375 224.636719h-15.53125v-15.53125c0-5.996094-4.902344-10.902344-10.898437-10.902344h-9.398438c-5.992188 0-10.898438 4.90625-10.898438 10.902344v15.53125h-15.527343c-5.996094 0-10.898438 4.902343-10.898438 10.898437v9.394532c0 5.996093 4.902344 10.898437 10.898438 10.898437h15.53125v15.53125c0 5.992187 4.902343 10.898437 10.898437 10.898437h9.398438c5.992187 0 10.898437-4.902343 10.898437-10.898437v-15.53125h15.53125c5.992188 0 10.898438-4.902344 10.898438-10.898437v-9.394532c-.003907-5.996094-4.90625-10.898437-10.902344-10.898437zm0 0" fill="#ffec97"/>
        </g>
        <g id="fourth" transform="scale(0.17)">
            <path d="m512 256c0 141.386719-114.613281 256-256 256s-256-114.613281-256-256 114.613281-256 256-256 256 114.613281 256 256zm0 0" fill="#9331b2"/><path d="m512 256c0-24.0625-3.328125-47.347656-9.535156-69.429688l-78.742188-78.140624-.621094-.792969c-3.003906-3.828125-7.664062-6.304688-12.882812-6.304688h-308.4375c-9.011719 0-16.386719 7.375-16.386719 16.386719v210.414062c0 2.199219.449219 4.300782 1.242188 6.222657h-31.082031v45.644531l118.648437 118.648438c25.683594 8.65625 53.191406 13.351562 81.796875 13.351562 141.386719 0 256-114.613281 256-256zm0 0" fill="#5c1b6f"/><path d="m410.21875 344.519531h-308.4375c-9.011719 0-16.386719-7.375-16.386719-16.386719v-210.414062c0-9.011719 7.375-16.382812 16.386719-16.382812h308.4375c9.011719 0 16.382812 7.371093 16.382812 16.382812v210.414062c.003907 9.011719-7.371093 16.386719-16.382812 16.386719zm0 0" fill="#fff"/><path d="m426.601562 117.71875v210.410156c0 2.210938-.441406 4.3125-1.242187 6.230469-2.460937 5.949219-8.328125 10.160156-15.140625 10.160156h-154.21875v-243.191406h154.21875c9.011719 0 16.382812 7.382813 16.382812 16.390625zm0 0" fill="#fff5cb"/><path d="m55.554688 334.355469h400.890624v45.644531h-400.890624zm0 0" fill="#00f8fe"/><path d="m256 334.359375h200.449219v45.640625h-200.449219zm0 0" fill="#00e8f2"/><path d="m103.5 119h305v198h-305zm0 0" fill="#ffec97"/><path d="m256 119h152.5v198h-152.5zm0 0" fill="#ffd400"/><path d="m166.5 334.355469h179v22.824219h-179zm0 0" fill="#00d9e0"/><path d="m256 334.359375h89.5v22.820313h-89.5zm0 0" fill="#00b7be"/><path d="m150.113281 218.820312 54.804688-33.140624v15.265624l-34.058594 21.136719 34.058594 20.617188v15.921875l-54.804688-32.625zm0 0" fill="#ff9a00"/><path d="m297.902344 171.679688-63.550782 92.644531h-15.917968l63.546875-92.644531zm0 0" fill="#ff9a00"/><g fill="#e67500"><path d="m281.980469 171.679688-25.980469 37.878906v23.203125l41.898438-61.082031zm0 0"/><path d="m361.886719 226-54.933594 32.621094v-15.921875l34.058594-20.613281-34.058594-21.140626v-15.265624l54.933594 33.144531zm0 0"/></g>
        </g>
        <g id="fifth" transform="scale(0.17)">
            <path d="m512 256c0 141.386719-114.613281 256-256 256s-256-114.613281-256-256 114.613281-256 256-256 256 114.613281 256 256zm0 0" fill="#ffdf47"/><path d="m512 256c0-7.199219-.3125-14.328125-.894531-21.378906l-150.964844-151.011719c-23.449219-24.882813-56.6875-40.445313-93.496094-40.445313h-21.292969c-70.855468 0-128.503906 57.648438-128.503906 128.507813v33.335937h-14.5c-19.882812 0-36 16.117188-36 36v83.5c0 10.089844 4.152344 19.210938 10.839844 25.746094l161.636719 161.160156c5.679687.375 11.402343.585938 17.175781.585938 141.386719 0 256-114.613281 256-256zm0 0" fill="#fdc000"/><path d="m339.941406 431.851562h-53.980468v-22.027343h53.980468c18.875 0 34.234375-15.355469 34.234375-34.230469v-31.1875h22.023438v31.1875c0 31.019531-25.238281 56.257812-56.257813 56.257812zm0 0" fill="#2a2a2c"/><path d="m329.144531 119.464844c-16.214843-18.523438-39.617187-29.144532-64.203125-29.144532h-17.882812c-24.585938 0-47.988282 10.625-64.199219 29.144532l-21.488281-18.808594c21.636718-24.714844 52.867187-38.890625 85.6875-38.890625h17.882812c32.820313 0 64.050782 14.171875 85.6875 38.890625zm0 0" fill="#fff"/><path d="m350.628906 100.65625-1.097656.960938-20.390625 17.851562c-16.210937-18.523438-39.609375-29.152344-64.199219-29.152344h-8.941406v-28.550781h8.941406c32.820313 0 64.046875 14.171875 85.6875 38.890625zm0 0" fill="#fff5cb"/><path d="m395.152344 220.261719h-19.929688v-48.589844c0-59.867187-48.707031-108.574219-108.574218-108.574219h-21.292969c-59.871094 0-108.578125 48.707032-108.578125 108.574219v48.589844h-19.929688v-48.589844c0-70.859375 57.648438-128.503906 128.507813-128.503906h21.292969c70.855468 0 128.503906 57.644531 128.503906 128.503906zm0 0" fill="#57555c"/><path d="m395.148438 171.675781v48.589844h-19.929688v-48.589844c0-26.667969-9.667969-51.140625-25.6875-70.058593-19.929688-23.550782-49.691406-38.519532-82.882812-38.519532h-10.648438v-19.929687h10.648438c70.851562 0 128.5 57.648437 128.5 128.507812zm0 0" fill="#2a2a2c"/><path d="m154.789062 360.503906h-52.441406c-19.882812 0-36-16.117187-36-35.996094v-83.5c0-19.878906 16.117188-35.996093 36-35.996093h52.441406zm0 0" fill="#9331b2"/><path d="m126.8125 205.011719h36.578125v155.492187h-36.578125zm0 0" fill="#fff"/><path d="m357.210938 360.503906h52.441406c19.882812 0 36-16.117187 36-35.996094v-83.5c0-19.878906-16.117188-35.996093-36-35.996093h-52.441406zm0 0" fill="#681f7b"/><path d="m385.1875 360.503906h-36.578125v-155.492187h36.578125zm0 0" fill="#fff5cb"/><path d="m272.789062 442.667969h-33.578124c-8.414063 0-15.238282-6.824219-15.238282-15.242188v-13.175781c0-8.414062 6.824219-15.238281 15.238282-15.238281h33.578124c8.417969 0 15.242188 6.824219 15.242188 15.238281v13.175781c-.003906 8.417969-6.824219 15.242188-15.242188 15.242188zm0 0" fill="#ff328e"/><path d="m288.03125 414.246094v13.179687c0 8.421875-6.820312 15.242188-15.242188 15.242188h-16.789062v-43.660157h16.789062c8.421876 0 15.242188 6.828126 15.242188 15.238282zm0 0" fill="#c50a5b"/>
        </g>
        <g id="sixth" transform="scale(0.17)">
            <path d="m512 256c0 141.386719-114.613281 256-256 256s-256-114.613281-256-256 114.613281-256 256-256 256 114.613281 256 256zm0 0" fill="#9331b2"/><path d="m512 256c0-27.433594-4.332031-53.855469-12.324219-78.632812l-75.683593-75.683594h-335.984376v308.097656l90.15625 90.152344c24.546876 7.828125 50.695313 12.066406 77.835938 12.066406 141.386719 0 256-114.613281 256-256zm0 0" fill="#5c1b6f"/><path d="m88.007812 150.609375h335.984376v259.171875h-335.984376zm0 0" fill="#fff"/><path d="m256 150.609375h167.988281v259.171875h-167.988281zm0 0" fill="#fff5cb"/><path d="m88.007812 101.683594h335.984376v54.359375h-335.984376zm0 0" fill="#ffaa20"/><path d="m256 101.679688h167.988281v54.359374h-167.988281zm0 0" fill="#e67500"/><path d="m317.863281 128.863281c0 8.945313-7.25 16.195313-16.195312 16.195313-8.945313 0-16.195313-7.25-16.195313-16.195313 0-8.945312 7.25-16.199219 16.195313-16.199219 8.945312 0 16.195312 7.253907 16.195312 16.199219zm0 0" fill="#00e8f2"/><path d="m360.695312 128.863281c0 8.945313-7.25 16.195313-16.195312 16.195313s-16.195312-7.25-16.195312-16.195313c0-8.945312 7.25-16.199219 16.195312-16.199219s16.195312 7.253907 16.195312 16.199219zm0 0" fill="#ffd400"/><path d="m403.527344 128.863281c0 8.945313-7.25 16.195313-16.195313 16.195313-8.945312 0-16.195312-7.25-16.195312-16.195313 0-8.945312 7.25-16.199219 16.195312-16.199219 8.945313 0 16.195313 7.253907 16.195313 16.199219zm0 0" fill="#00e8f2"/><path d="m129.703125 272.730469 65.367187-39.53125v18.210937l-40.621093 25.210938 40.621093 24.589844v18.988281l-65.367187-38.910157zm0 0" fill="#ff328e"/><path d="m305.976562 216.5-75.792968 110.5h-18.988282l75.792969-110.5zm0 0" fill="#ff328e"/><g fill="#c50a5b"><path d="m286.988281 216.503906-30.988281 45.179688v27.671875l49.976562-72.851563zm0 0"/><path d="m382.296875 281.289062-65.523437 38.910157v-18.988281l40.621093-24.589844-40.621093-25.210938v-18.210937l65.523437 39.53125zm0 0"/></g>
        </g>
        <g id="seventh" transform="scale(0.17)">
            <path d="m512 256c0 141.386719-114.613281 256-256 256s-256-114.613281-256-256 114.613281-256 256-256 256 114.613281 256 256zm0 0" fill="#ffdf47"/><path d="m512 256c0-17.765625-1.8125-35.105469-5.257812-51.851562-46.875-47.128907-124.390626-124.476563-124.390626-124.476563-6.339843-7.148437-15.574218-11.671875-25.820312-11.671875h-201.0625c-18.996094 0-34.535156 15.539062-34.535156 34.53125v306.9375c0 9.992188 4.304687 19.023438 11.152344 25.34375 0 0 45.457031 45.613281 72.078124 71.933594 16.742188 3.441406 34.078126 5.253906 51.835938 5.253906 141.386719 0 256-114.613281 256-256zm0 0" fill="#fdc000"/><path d="m356.53125 444h-201.0625c-18.996094 0-34.535156-15.539062-34.535156-34.53125v-306.9375c0-18.992188 15.539062-34.53125 34.535156-34.53125h201.0625c18.996094 0 34.535156 15.539062 34.535156 34.53125v306.9375c0 18.992188-15.539062 34.53125-34.535156 34.53125zm0 0" fill="#9331b2"/><path d="m391.070312 102.53125v306.9375c0 18.992188-15.539062 34.53125-34.539062 34.53125h-100.53125v-376h100.53125c19 0 34.539062 15.539062 34.539062 34.53125zm0 0" fill="#5c1b6f"/><path d="m152.117188 109.390625h207.765624v112.960937h-207.765624zm0 0" fill="#00e8f2"/><path d="m256 109.390625h103.878906v112.960937h-103.878906zm0 0" fill="#00b7be"/><path d="m233.773438 295h-15.355469v-15.355469c0-6.058593-4.910157-10.96875-10.96875-10.96875h-7.3125c-6.058594 0-10.96875 4.910157-10.96875 10.96875v15.355469h-15.355469c-6.058594 0-10.96875 4.910156-10.96875 10.96875v7.3125c0 6.058594 4.910156 10.96875 10.96875 10.96875h15.355469v15.355469c0 6.058593 4.910156 10.96875 10.96875 10.96875h7.3125c6.058593 0 10.96875-4.910157 10.96875-10.96875v-15.355469h15.355469c6.058593 0 10.96875-4.910156 10.96875-10.96875v-7.3125c0-6.058594-4.910157-10.96875-10.96875-10.96875zm0 0" fill="#ff9a00"/><path d="m349.15625 296.515625c0 12.535156-10.15625 22.691406-22.6875 22.691406-12.535156 0-22.691406-10.15625-22.691406-22.691406 0-12.53125 10.15625-22.691406 22.691406-22.691406 12.53125 0 22.6875 10.160156 22.6875 22.691406zm0 0" fill="#c50a5b"/><path d="m303.730469 334.320312c0 9.65625-7.828125 17.484376-17.484375 17.484376s-17.484375-7.828126-17.484375-17.484376 7.828125-17.484374 17.484375-17.484374 17.484375 7.828124 17.484375 17.484374zm0 0" fill="#00b7be"/>
        </g>
        <g id="eighth" transform="scale(0.17)">
            <path d="m512 256c0 141.386719-114.613281 256-256 256s-256-114.613281-256-256 114.613281-256 256-256 256 114.613281 256 256zm0 0" fill="#ffec97"/><path d="m512 256c0-21.367188-2.632812-42.113281-7.566406-61.957031l-66.042969-66.042969h-62.292969l-41.097656-42.335938h-158l-22.84375 42.335938h-80.546875v256l120.433594 120.433594c19.839843 4.933594 40.589843 7.566406 61.957031 7.566406 141.386719 0 256-114.613281 256-256zm0 0" fill="#ffd400"/><path d="m335 85.664062h-158l-24.820312 46.003907h207.640624zm0 0" fill="#ff328e"/><path d="m359.820312 131.671875h-103.820312v-46h79l22.839844 42.328125zm0 0" fill="#c50a5b"/><path d="m73.609375 128h364.78125v256h-364.78125zm0 0" fill="#9331b2"/><path d="m256 128h182.390625v256h-182.390625zm0 0" fill="#5c1b6f"/><path d="m359.820312 256c0 57.339844-46.480468 103.820312-103.820312 103.820312s-103.820312-46.480468-103.820312-103.820312 46.480468-103.820312 103.820312-103.820312 103.820312 46.480468 103.820312 103.820312zm0 0" fill="#fff"/><path d="m359.820312 256c0 57.339844-46.480468 103.820312-103.820312 103.820312v-207.640624c57.339844 0 103.820312 46.480468 103.820312 103.820312zm0 0" fill="#fff5cb"/><path d="m335 256c0 43.628906-35.371094 79-79 79s-79-35.371094-79-79 35.371094-79 79-79 79 35.371094 79 79zm0 0" fill="#00e8f2"/><path d="m335 256c0 43.628906-35.371094 79-79 79v-158c43.628906 0 79 35.371094 79 79zm0 0" fill="#00b7be"/><path d="m401.421875 198.921875h-22.332031c-6.71875 0-12.167969-5.445313-12.167969-12.164063v-22.335937c0-6.71875 5.449219-12.164063 12.167969-12.164063h22.332031c6.71875 0 12.167969 5.445313 12.167969 12.164063v22.335937c0 6.71875-5.445313 12.164063-12.167969 12.164063zm0 0" fill="#fff5cb"/>
        </g>
    </g>
</svg>